<svg width="51" height="41" viewBox="0 0 51 41" fill="none" xmlns="http://www.w3.org/2000/svg">
<g filter="url(#filter0_d_11_200)">
<path fill-rule="evenodd" clip-rule="evenodd" d="M20.715 8.90318C20.715 8.00706 19.6271 7.56329 19.0003 8.20376L8.0475 19.3959C7.67436 19.7772 7.66625 20.3842 8.02906 20.7754L18.9819 32.5831C19.6002 33.2496 20.715 32.8121 20.715 31.903V28.3181C20.715 26.8646 21.7759 25.5507 23.3064 25.4049C26.2568 25.1238 29.3216 25.3232 32.4965 25.9934C35.2524 26.5753 38.155 28.3839 41.2002 31.252C41.6147 31.6425 42.1005 31.6476 42.4052 31.4969C42.556 31.4224 42.6478 31.3188 42.6928 31.2152C42.7338 31.1209 42.7656 30.9596 42.6786 30.7022C41.4611 27.1009 39.5016 23.9377 36.792 21.204C33.0899 17.4695 28.7077 15.3971 23.6112 14.9564C22.0506 14.8215 20.715 13.5503 20.715 11.8836V8.90318ZM17.5709 6.80491C19.4512 4.88351 22.715 6.21481 22.715 8.90318V11.8836C22.715 12.4137 23.1554 12.9096 23.7835 12.9639C29.3646 13.4464 34.1856 15.7339 38.2124 19.796L38.2125 19.796C41.1341 22.7437 43.2571 26.1685 44.5733 30.0617C44.8033 30.742 44.7849 31.4191 44.5271 32.0123C44.2733 32.5963 43.8179 33.0295 43.2917 33.2897C42.2425 33.8085 40.8555 33.6748 39.8289 32.7079C36.9044 29.9535 34.3239 28.4233 32.0833 27.9503C29.0858 27.3175 26.2249 27.1359 23.4961 27.3959C23.0745 27.4361 22.715 27.8108 22.715 28.3181V31.903C22.715 34.6304 19.3704 35.9428 17.5156 33.9432L6.56276 22.1355C5.47432 20.9621 5.49867 19.1409 6.61809 17.997L17.5709 6.80491Z" fill="white"/>
</g>
<defs>
<filter id="filter0_d_11_200" x="0.262207" y="0.397156" width="49.9717" height="40.0119" filterUnits="userSpaceOnUse" color-interpolation-filters="sRGB">
<feFlood flood-opacity="0" result="BackgroundImageFix"/>
<feColorMatrix in="SourceAlpha" type="matrix" values="0 0 0 0 0 0 0 0 0 0 0 0 0 0 0 0 0 0 127 0" result="hardAlpha"/>
<feOffset/>
<feGaussianBlur stdDeviation="2.75"/>
<feComposite in2="hardAlpha" operator="out"/>
<feColorMatrix type="matrix" values="0 0 0 0 0.95 0 0 0 0 0 0 0 0 0 1 0 0 0 0.55 0"/>
<feBlend mode="normal" in2="BackgroundImageFix" result="effect1_dropShadow_11_200"/>
<feBlend mode="normal" in="SourceGraphic" in2="effect1_dropShadow_11_200" result="shape"/>
</filter>
</defs>
</svg>
