<svg width="33" height="33" viewBox="0 0 33 33" fill="none" xmlns="http://www.w3.org/2000/svg">
<path fill-rule="evenodd" clip-rule="evenodd" d="M1.41422 3.18204C0.63317 3.96309 0.63317 5.22942 1.41422 6.01047L11.844 16.4403L1.41416 26.8702C0.633107 27.6512 0.633107 28.9176 1.41416 29.6986L3.18192 31.4664C3.96297 32.2474 5.2293 32.2474 6.01035 31.4664L16.4402 21.0365L26.8701 31.4663C27.6511 32.2474 28.9174 32.2474 29.6985 31.4663L31.4663 29.6985C32.2473 28.9175 32.2473 27.6512 31.4663 26.8701L21.0364 16.4403L31.4662 6.01053C32.2472 5.22948 32.2472 3.96315 31.4662 3.1821L29.6984 1.41433C28.9174 0.633285 27.651 0.633285 26.87 1.41433L16.4402 11.8441L6.01041 1.41428C5.22936 0.633229 3.96303 0.633229 3.18199 1.41428L1.41422 3.18204Z" fill="white" fill-opacity="0.29"/>
<path d="M1.41422 6.01047L1.76777 5.65692H1.76777L1.41422 6.01047ZM1.41422 3.18204L1.76777 3.5356L1.41422 3.18204ZM11.844 16.4403L12.1976 16.7938L12.5511 16.4403L12.1976 16.0867L11.844 16.4403ZM1.41416 26.8702L1.0606 26.5166H1.0606L1.41416 26.8702ZM1.41416 29.6986L1.0606 30.0522H1.0606L1.41416 29.6986ZM3.18192 31.4664L2.82837 31.8199H2.82837L3.18192 31.4664ZM6.01035 31.4664L5.6568 31.1128L6.01035 31.4664ZM16.4402 21.0365L16.7938 20.6829L16.4402 20.3294L16.0867 20.6829L16.4402 21.0365ZM26.8701 31.4663L26.5165 31.8199L26.8701 31.4663ZM31.4663 29.6985L31.8198 30.0521L31.4663 29.6985ZM21.0364 16.4403L20.6829 16.0867L20.3293 16.4403L20.6829 16.7938L21.0364 16.4403ZM31.4662 6.01053L31.1126 5.65697V5.65697L31.4662 6.01053ZM31.4662 3.1821L31.1126 3.53565V3.53565L31.4662 3.1821ZM29.6984 1.41433L29.3449 1.76789L29.3449 1.76789L29.6984 1.41433ZM26.87 1.41433L27.2236 1.76789V1.76789L26.87 1.41433ZM16.4402 11.8441L16.0867 12.1977L16.4402 12.5512L16.7938 12.1977L16.4402 11.8441ZM6.01041 1.41428L5.65686 1.76783V1.76783L6.01041 1.41428ZM3.18199 1.41428L2.82843 1.06072L2.82843 1.06072L3.18199 1.41428ZM1.76777 5.65692C1.18199 5.07113 1.18199 4.12138 1.76777 3.5356L1.06067 2.82849C0.0843543 3.8048 0.0843548 5.38771 1.06067 6.36403L1.76777 5.65692ZM12.1976 16.0867L1.76777 5.65692L1.06067 6.36403L11.4905 16.7938L12.1976 16.0867ZM1.76771 27.2237L12.1976 16.7938L11.4905 16.0867L1.0606 26.5166L1.76771 27.2237ZM1.76771 29.3451C1.18192 28.7593 1.18192 27.8095 1.76771 27.2237L1.0606 26.5166C0.0842916 27.4929 0.0842915 29.0758 1.0606 30.0522L1.76771 29.3451ZM3.53548 31.1128L1.76771 29.3451L1.0606 30.0522L2.82837 31.8199L3.53548 31.1128ZM5.6568 31.1128C5.07101 31.6986 4.12126 31.6986 3.53548 31.1128L2.82837 31.8199C3.80468 32.7962 5.38759 32.7962 6.3639 31.8199L5.6568 31.1128ZM16.0867 20.6829L5.6568 31.1128L6.3639 31.8199L16.7938 21.39L16.0867 20.6829ZM27.2236 31.1128L16.7938 20.6829L16.0867 21.39L26.5165 31.8199L27.2236 31.1128ZM29.3449 31.1128C28.7591 31.6985 27.8094 31.6985 27.2236 31.1128L26.5165 31.8199C27.4928 32.7962 29.0757 32.7962 30.052 31.8199L29.3449 31.1128ZM31.1127 29.345L29.3449 31.1128L30.052 31.8199L31.8198 30.0521L31.1127 29.345ZM31.1127 27.2237C31.6985 27.8095 31.6985 28.7592 31.1127 29.345L31.8198 30.0521C32.7961 29.0758 32.7961 27.4929 31.8198 26.5166L31.1127 27.2237ZM20.6829 16.7938L31.1127 27.2237L31.8198 26.5166L21.39 16.0867L20.6829 16.7938ZM31.1126 5.65697L20.6829 16.0867L21.39 16.7938L31.8197 6.36408L31.1126 5.65697ZM31.1126 3.53565C31.6984 4.12144 31.6984 5.07119 31.1126 5.65697L31.8197 6.36408C32.7961 5.38777 32.7961 3.80486 31.8197 2.82855L31.1126 3.53565ZM29.3449 1.76789L31.1126 3.53565L31.8197 2.82855L30.052 1.06078L29.3449 1.76789ZM27.2236 1.76789C27.8093 1.1821 28.7591 1.1821 29.3449 1.76789L30.052 1.06078C29.0757 0.084469 27.4928 0.0844694 26.5164 1.06078L27.2236 1.76789ZM16.7938 12.1977L27.2236 1.76789L26.5164 1.06078L16.0867 11.4905L16.7938 12.1977ZM5.65686 1.76783L16.0867 12.1977L16.7938 11.4905L6.36397 1.06072L5.65686 1.76783ZM3.53554 1.76783C4.12133 1.18204 5.07107 1.18204 5.65686 1.76783L6.36397 1.06072C5.38766 0.0844135 3.80474 0.0844135 2.82843 1.06072L3.53554 1.76783ZM1.76777 3.5356L3.53554 1.76783L2.82843 1.06072L1.06067 2.82849L1.76777 3.5356Z" fill="white"/>
</svg>
